<?xml version="1.0" encoding="UTF-8"?>
<svg id="Layer_1" data-name="Layer 1" xmlns="http://www.w3.org/2000/svg" viewBox="0 0 498.53 126.34">
  <defs>
    <style>
      .cls-1 {
        fill: #fff;
      }

      .cls-2 {
        fill: #d6b160;
      }
    </style>
  </defs>
  <g>
    <path class="cls-2" d="M161.57,120.66c-.2-.19-.51-.19-.7,0-1.67,1.59-3.31,2.65-5.9,2.65-3.92,0-6.99-3.29-6.99-7.54s3-7.43,6.99-7.43c2.16,0,3.88.75,5.74,2.52.1.09.22.13.36.14.14,0,.26-.06.35-.16l1.49-1.6c.19-.2.18-.52-.02-.71-1.77-1.67-3.95-3.21-7.89-3.21-5.77,0-10.29,4.62-10.29,10.51v.06c0,5.96,4.39,10.46,10.21,10.46,4.05,0,6.37-1.79,8.1-3.55.09-.1.15-.22.15-.36s-.06-.26-.15-.36l-1.44-1.41Z"/>
    <path class="cls-2" d="M181.98,105.32c-5.83,0-10.4,4.62-10.4,10.51v.06c0,5.96,4.45,10.46,10.35,10.46s10.4-4.62,10.4-10.57-4.45-10.46-10.35-10.46ZM189.05,115.83v.06c0,4.24-3.04,7.43-7.07,7.43s-7.13-3.22-7.13-7.54,3.04-7.43,7.07-7.43,7.13,3.22,7.13,7.48Z"/>
    <path class="cls-2" d="M210.26,114.28c-4.5-.96-4.85-2.01-4.85-3.32,0-1.54,1.49-2.62,3.61-2.62,1.93,0,3.6.63,5.26,1.99.11.09.25.12.38.11.14-.02.26-.09.34-.2l1.27-1.69c.16-.22.13-.53-.09-.7-2.17-1.74-4.3-2.49-7.12-2.49-3.98,0-6.86,2.43-6.86,5.84,0,3.8,2.76,5.18,6.9,6.08,4.29.91,4.63,1.93,4.63,3.24,0,1.67-1.53,2.79-3.81,2.79-2.43,0-4.25-.76-6.3-2.61-.1-.09-.24-.15-.37-.13-.14,0-.26.07-.35.18l-1.36,1.6c-.18.21-.15.52.05.7,2.47,2.2,5.09,3.22,8.24,3.22,4.19,0,7.11-2.46,7.11-6.03,0-3.16-2-4.94-6.7-5.97Z"/>
    <path class="cls-2" d="M241.25,105.65h-15.23c-.28,0-.5.23-.5.5v2.02c0,.28.23.5.5.5h6.02v16.83c0,.28.23.5.5.5h2.18c.28,0,.5-.23.5-.5v-16.83h6.02c.28,0,.5-.23.5-.5v-2.02c0-.28-.23-.5-.5-.5Z"/>
    <path class="cls-2" d="M263.08,117.92c3.08-.82,4.89-3.01,4.89-6.02,0-1.63-.58-3.12-1.64-4.17-1.34-1.34-3.42-2.08-5.86-2.08h-8.32c-.28,0-.5.23-.5.5v19.35c0,.28.23.5.5.5h2.18c.28,0,.5-.23.5-.5v-7.02h4.77l5.46,7.32c.09.13.24.2.4.2h2.68c.19,0,.37-.11.45-.28.08-.17.07-.37-.05-.53l-5.48-7.28ZM264.75,112.04c0,2.11-1.75,3.48-4.47,3.48h-5.44v-6.84h5.47c2.82,0,4.44,1.21,4.44,3.37Z"/>
    <path class="cls-2" d="M294.86,105.65h-2.18c-.28,0-.5.23-.5.5v11.25c0,3.79-1.89,5.88-5.33,5.88s-5.41-2.19-5.41-6.02v-11.11c0-.28-.23-.5-.5-.5h-2.18c-.28,0-.5.23-.5.5v11.25c0,5.49,3.28,8.91,8.55,8.91s8.58-3.39,8.58-9.08v-11.09c0-.28-.23-.5-.5-.5Z"/>
    <path class="cls-2" d="M321.56,105.65h-15.1c-.28,0-.5.23-.5.5v1.96c0,.28.23.5.5.5h11.07l-11.88,15.11c-.07.09-.11.2-.11.31v1.46c0,.28.23.5.5.5h15.51c.28,0,.5-.23.5-.5v-1.96c0-.28-.23-.5-.5-.5h-11.51l11.91-15.11c.07-.09.11-.2.11-.31v-1.47c0-.28-.23-.5-.5-.5Z"/>
    <rect class="cls-2" x="332.7" y="105.65" width="3.19" height="20.36" rx=".5" ry=".5"/>
    <path class="cls-2" d="M357,105.32c-5.83,0-10.4,4.62-10.4,10.51v.06c0,5.96,4.45,10.46,10.35,10.46s10.4-4.62,10.4-10.57-4.45-10.46-10.35-10.46ZM364.08,115.83v.06c0,4.24-3.04,7.43-7.07,7.43s-7.13-3.22-7.13-7.54,3.04-7.43,7.07-7.43,7.13,3.22,7.13,7.48Z"/>
    <path class="cls-2" d="M394.74,105.65h-2.13c-.28,0-.5.23-.5.5v14.05l-11.29-14.36c-.09-.12-.24-.19-.4-.19h-2.05c-.28,0-.5.23-.5.5v19.35c0,.28.23.5.5.5h2.13c.28,0,.5-.23.5-.5v-14.41l11.6,14.72c.09.12.24.19.4.19h1.74c.28,0,.5-.23.5-.5v-19.35c0-.28-.23-.5-.5-.5Z"/>
    <rect class="cls-2" x="406.82" y="105.65" width="3.19" height="20.36" rx=".5" ry=".5"/>
  </g>
  <g>
    <path class="cls-1" d="M146.01,44.65c0-1.57,1.34-2.91,2.91-2.91h.67c1.27,0,2.17.67,2.76,1.57l18.68,28.09,18.68-28.09c.6-.97,1.57-1.57,2.76-1.57h.67c1.57,0,2.91,1.34,2.91,2.91v46.99c0,1.64-1.34,2.99-2.91,2.99s-2.99-1.42-2.99-2.99v-39l-16.74,24.58c-.67.97-1.42,1.49-2.46,1.49s-1.87-.52-2.54-1.49l-16.66-24.5v39c0,1.64-1.27,2.91-2.91,2.91s-2.84-1.27-2.84-2.91v-47.07Z"/>
    <path class="cls-1" d="M265.61,47.42h-15.17c-1.49,0-2.76-1.19-2.76-2.69s1.27-2.76,2.76-2.76h36.31c1.49,0,2.76,1.27,2.76,2.76s-1.27,2.69-2.76,2.69h-15.17v44.23c0,1.64-1.34,2.99-2.99,2.99s-2.99-1.34-2.99-2.99v-44.23Z"/>
    <path class="cls-1" d="M294.59,91.27v-46.32c0-1.64,1.34-2.99,2.91-2.99h32.5c1.49,0,2.69,1.19,2.69,2.69s-1.2,2.69-2.69,2.69h-29.51v17.86h26.15c1.49,0,2.69,1.27,2.69,2.69,0,1.49-1.2,2.69-2.69,2.69h-26.15v18.3h29.88c1.49,0,2.69,1.19,2.69,2.69s-1.19,2.69-2.69,2.69h-32.87c-1.57,0-2.91-1.34-2.91-2.99Z"/>
    <path class="cls-1" d="M339.04,44.95c0-1.64,1.34-2.99,2.91-2.99h19.57c6.43,0,11.58,1.94,14.87,5.23,2.54,2.54,4.03,6.2,4.03,10.31v.15c0,8.59-5.83,13.6-13.97,15.17l13,16.73c.6.67.97,1.34.97,2.17,0,1.57-1.49,2.91-2.99,2.91-1.2,0-2.09-.67-2.76-1.57l-14.72-19.12h-15.02v17.71c0,1.64-1.34,2.99-2.99,2.99s-2.91-1.34-2.91-2.99v-46.69ZM361,68.63c7.84,0,13.45-4.03,13.45-10.76v-.15c0-6.43-4.93-10.31-13.37-10.31h-16.14v21.22h16.06Z"/>
    <path class="cls-1" d="M387.96,44.58c0-1.64,1.34-2.99,2.91-2.99s2.99,1.34,2.99,2.99v47.07c0,1.64-1.35,2.99-2.99,2.99s-2.91-1.34-2.91-2.99v-47.07Z"/>
    <path class="cls-1" d="M403.58,44.58c0-1.64,1.34-2.99,2.91-2.99s2.99,1.34,2.99,2.99v28.61l29.81-30.55c.67-.6,1.34-1.05,2.32-1.05,1.57,0,2.84,1.42,2.84,2.91,0,.82-.37,1.49-.97,2.09l-18.53,18.38,19.87,24.5c.52.67.82,1.27.82,2.17,0,1.57-1.34,2.99-2.99,2.99-1.12,0-1.87-.6-2.39-1.34l-19.5-24.28-11.28,11.28v11.35c0,1.64-1.34,2.99-2.99,2.99s-2.91-1.34-2.91-2.99v-47.07Z"/>
    <path class="cls-1" d="M252.16,90.3l-21.22-46.32c-.67-1.64-1.87-2.61-3.66-2.61h-.3c-1.87,0-2.99.97-3.74,2.61l-21.22,46.39c-.3.6-.37,1.12-.37,1.57,0,1.49,1.19,2.69,2.69,2.69,1.34,0,2.31-.75,2.84-2.02l5.45-12.18h10.42v-5.38h-8.1l12.03-26.74,12.03,26.74h-7.88v5.38h10.19l5.45,12.03c.52,1.19,1.49,2.17,2.91,2.17,1.57,0,2.84-1.27,2.84-2.84,0-.45-.15-.97-.37-1.49Z"/>
    <path class="cls-1" d="M498.15,90.3l-21.21-46.32c-.67-1.64-1.87-2.61-3.66-2.61h-.3c-1.87,0-2.99.97-3.73,2.61l-21.22,46.39c-.3.6-.37,1.12-.37,1.57,0,1.49,1.2,2.69,2.69,2.69,1.35,0,2.32-.75,2.84-2.02l5.45-12.18h10.42v-5.38h-8.1l12.03-26.74,12.03,26.74h-7.88v5.38h10.19l5.45,12.03c.52,1.19,1.49,2.17,2.91,2.17,1.57,0,2.84-1.27,2.84-2.84,0-.45-.15-.97-.37-1.49Z"/>
  </g>
  <path class="cls-1" d="M63.11,63.36L0,.25v125.59h25.86v-23.44l11.81,11.81,11.86-11.86v23.49h1.8v-26.72l2.9-2.9v29.62h1.8v-32.85l2.9-2.9v35.75h1.8v-38.97l2.9-2.9v41.87h1.8v-45.1l2.9-2.9v48h1.8v-51.22l2.56-2.56.34-.3v54.08h1.8v-57.35l2.9-2.9v60.25h1.8v-63.47l2.9-2.9v66.37h1.8V56.3s0-.06,0-.06l2.9-2.9v72.5h1.8V50.12l2.9-2.9v78.62h1.8V43.99l2.9-2.9v84.75h1.8V37.86l2.9-2.9v90.87h1.8V31.74l2.9-2.9v97h1.79V25.7l2.9-2.99v103.12h1.8V19.49l2.9-2.9v109.25h1.8V13.65l2.9-3.01v115.2h1.8V7.24l2.9-2.9v121.5h1.8V0l-63.36,63.36ZM1.8,4.59l60.41,60.42-.72,1.35L3.04,7.89l-1.24-1.24v-2.07ZM3.3,10.7l57.31,57.32-.72,1.35L4.54,14.01l-1.24-1.24v-2.07ZM4.81,16.81l54.22,54.22-.72,1.35L6.05,20.12l-1.24-1.24v-2.07ZM6.31,22.92l51.11,51.11-.72,1.35L6.87,25.55l-.56-.56v-2.07ZM7.81,29.04l48.01,48.01-.72,1.35L7.81,31.11v-2.07ZM9.32,35.15l44.91,44.91-.72,1.35L9.32,37.22v-2.07ZM10.82,41.26l41.81,41.81-.72,1.35L10.82,43.33v-2.07ZM12.33,47.38l38.71,38.71-.72,1.35L12.33,49.45v-2.07ZM13.83,53.49l35.61,35.61-.72,1.35L13.83,55.56v-2.07ZM15.33,59.6l32.51,32.51-.72,1.35-31.79-31.79v-2.07ZM16.84,65.71l29.41,29.41-.72,1.35-28.69-28.69v-2.07ZM18.34,71.83l26.31,26.31-.72,1.35-25.59-25.59v-2.07ZM19.85,77.94l23.21,23.21-.72,1.35-22.49-22.49v-2.07ZM21.35,84.05l20.11,20.11-.71,1.35-19.39-19.39v-2.07ZM22.85,90.17l17.01,17.01-.71,1.36-16.3-16.3v-2.07ZM24.36,96.28l13.91,13.91-.72,1.35-13.19-13.19v-2.07Z"/>
</svg>