<?xml version="1.0" encoding="UTF-8"?>
<svg id="Layer_1" data-name="Layer 1" xmlns="http://www.w3.org/2000/svg" viewBox="0 0 126.47 125.84">
  <defs>
    <style>
      .cls-1 {
        fill: #fff;
      }
    </style>
  </defs>
  <path class="cls-1" d="M63.11,63.36L0,.25v125.59h25.86v-23.44l11.81,11.81,11.86-11.86v23.49h1.8v-26.72l2.9-2.9v29.62h1.8v-32.85l2.9-2.9v35.75h1.8v-38.97l2.9-2.9v41.87h1.8v-45.1l2.9-2.9v48h1.8v-51.22l2.56-2.56.34-.3v54.08h1.8v-57.35l2.9-2.9v60.25h1.8v-63.47l2.9-2.9v66.37h1.8V56.3s0-.06,0-.06l2.9-2.9v72.5h1.8V50.12l2.9-2.9v78.62h1.8V43.99l2.9-2.9v84.75h1.8V37.86l2.9-2.9v90.87h1.8V31.74l2.9-2.9v97h1.79V25.7l2.9-2.99v103.12h1.8V19.49l2.9-2.9v109.25h1.8V13.65l2.9-3.01v115.2h1.8V7.24l2.9-2.9v121.5h1.8V0l-63.36,63.36ZM1.8,4.59l60.41,60.42-.72,1.35L3.04,7.89l-1.24-1.24v-2.07ZM3.3,10.7l57.31,57.32-.72,1.35L4.54,14.01l-1.24-1.24v-2.07ZM4.81,16.81l54.22,54.22-.72,1.35L6.05,20.12l-1.24-1.24v-2.07ZM6.31,22.92l51.11,51.11-.72,1.35L6.87,25.55l-.56-.56v-2.07ZM7.81,29.04l48.01,48.01-.72,1.35L7.81,31.11v-2.07ZM9.32,35.15l44.91,44.91-.72,1.35L9.32,37.22v-2.07ZM10.82,41.26l41.81,41.81-.72,1.35L10.82,43.33v-2.07ZM12.33,47.38l38.71,38.71-.72,1.35L12.33,49.45v-2.07ZM13.83,53.49l35.61,35.61-.72,1.35L13.83,55.56v-2.07ZM15.33,59.6l32.51,32.51-.72,1.35-31.79-31.79v-2.07ZM16.84,65.71l29.41,29.41-.72,1.35-28.69-28.69v-2.07ZM18.34,71.83l26.31,26.31-.72,1.35-25.59-25.59v-2.07ZM19.85,77.94l23.21,23.21-.72,1.35-22.49-22.49v-2.07ZM21.35,84.05l20.11,20.11-.71,1.35-19.39-19.39v-2.07ZM22.85,90.17l17.01,17.01-.71,1.36-16.3-16.3v-2.07ZM24.36,96.28l13.91,13.91-.72,1.35-13.19-13.19v-2.07Z"/>
</svg>